PathFileType	4	(X/Y/Z)	Patient4_TMGait_0pt7_01_left_30.trc.trc
DataRate	CameraRate	NumFrames	NumMarkers	Units	OrigDataRate	OrigDataStartFrame	OrigNumFrames
88.050314465409	88.050314465409	5	33	mm	88.050314465409	18	       141
Frame#	Time	Sacral			L.Shoulder			Chest			R.Shoulder			Neck			R.ASIS			L.ASIS			R.Thigh.Superior			R.Thigh.Lateral			R.Thigh.Inferior			R.Patella			L.Thigh.Superior			L.Thigh.Lateral			L.Thigh.Inferior			L.Patella			L.Shank.Superior			L.Shank.Lateral			L.Shank.Inferior			R.Shank.Superior			R.Shank.Lateral			R.Shank.Inferior			R.Heel			R.Midfoot.Superior			R.Midfoot.Lateral			R.Toe			L.Heel			L.Midfoot.Lateral			L.Midfoot.Superior			L.Toe			L.Elbow			L.Wrist			R.Elbow			R.Wrist			
		X1	Y1	Z1	X2	Y2	Z2	X3	Y3	Z3	X4	Y4	Z4	X5	Y5	Z5	X6	Y6	Z6	X7	Y7	Z7	X8	Y8	Z8	X9	Y9	Z9	X10	Y10	Z10	X11	Y11	Z11	X12	Y12	Z12	X13	Y13	Z13	X14	Y14	Z14	X15	Y15	Z15	X16	Y16	Z16	X17	Y17	Z17	X18	Y18	Z18	X19	Y19	Z19	X20	Y20	Z20	X21	Y21	Z21	X22	Y22	Z22	X23	Y23	Z23	X24	Y24	Z24	X25	Y25	Z25	X26	Y26	Z26	X27	Y27	Z27	X28	Y28	Z28	X29	Y29	Z29	X30	Y30	Z30	X31	Y31	Z31	X32	Y32	Z32	X33	Y33	Z33	

18	34.833071428571	759.626500995810	1003.862870164161	541.624135495935	931.246049489769	1411.721373670407	326.267317210473	1048.734170060152	1345.906748847293	478.882706870977	989.805512807739	1436.256909036292	653.384753558256	954.268583671401	1481.152212550802	477.420965847897	987.969985966483	931.307412004883	648.509780184787	964.038874843679	946.202104981496	372.872802009267	981.999407983631	717.850611612856	620.547066024847	874.745739874313	625.602953283009	679.767554052444	933.770181787681	559.434033431090	598.640983449522	911.182726869798	474.917313931335	599.774566546138	1049.495147469720	790.782961405668	418.026112268409	1035.555730412276	660.147197625101	329.051698862871	1135.911649121088	611.595467526044	404.682806282202	1173.342814836821	543.513329091399	398.243870605040	1153.783662683969	466.001263311378	384.338664534767	1088.084686880353	341.898525653150	318.713791805446	1162.466881517210	235.733115703865	379.127583886968	870.674682813451	391.696882373097	605.173461184821	784.918111613711	299.851479574171	667.345421246694	807.075000383387	201.389970959132	599.725254979574	649.963751193318	47.180605064854	572.713551491713	823.633783953138	96.348954838181	603.420840874564	734.865388401734	38.296792910524	644.732972959560	942.994891199085	39.134474002581	629.381846906250	1066.392444368058	58.489615537107	399.135882976891	1150.459907658608	61.741402809522	329.475708727334	1221.132553504587	135.942935911946	360.627216496484	1356.307464769642	99.895413608342	352.533846650502	773.356722529017	1092.424863804348	251.722410099100	731.556233521342	835.624418168569	274.453708971526	1162.657291453400	1152.058211556654	763.303825758712	1333.699582991611	1264.477322586360	620.576516704415	
19	34.844428571429	760.603360924981	1002.548380146236	540.352362600745	932.017080248073	1410.539635986999	325.460918356013	1049.566655441396	1344.425827718658	477.888128461670	990.699000104025	1434.404060960881	652.535175974531	955.059079707525	1479.713661949069	476.735321856602	988.821602841623	929.692120143572	647.399470418479	965.069197742702	944.389130649984	371.686962052463	981.047603371629	716.088165354038	619.927206479546	872.803533314166	624.673636548498	679.101237149885	931.327229484500	557.918486325564	598.242090147701	907.800505798706	473.417907390010	599.463036820260	1048.881796642681	786.524459842386	416.470624993828	1032.198744304122	655.888407852793	327.408018272585	1131.828433932012	606.117728365495	403.025274963604	1168.503768166521	539.166458023090	396.972924803309	1150.530789653565	462.272123772002	383.014143007549	1088.052273879327	336.339663286755	317.613782375463	1164.859346613189	232.232966066172	378.638959590539	866.386693832728	390.554080703000	604.975131580484	779.429944092897	299.830284621616	667.278110945101	800.490145117629	200.988172320330	599.777498088969	642.032138787172	47.721005705400	572.843523742998	815.826874770410	96.378023643822	603.556680853648	726.911885449068	38.500985070438	644.832765006396	935.001663692225	38.928500798473	629.452483431027	1072.988247750540	53.084089843136	398.780401954693	1157.370077709296	57.773033558549	329.492262148790	1226.440492819606	133.371094913670	360.800055417072	1362.375289493524	99.851943098808	353.531080760135	771.962607666291	1092.634012640285	251.374478680953	728.249468516987	836.093509289507	274.663738348866	1167.454939961523	1153.105991579916	760.572241750592	1335.100068849031	1269.201334070258	616.902282283952	
20	34.855785714286	761.843151501978	1001.112081120401	538.821079941829	932.840966361962	1409.282216848022	324.494795189088	1050.451089973673	1342.977847623195	476.799325904267	991.463973999241	1432.502683174091	651.608932563930	955.790397436465	1478.242102835609	475.898243904619	989.878892140109	927.994421265381	646.186713163862	966.385184469311	942.501895916540	370.429829621400	980.337179293748	714.261361846960	619.209173667499	871.070997041093	623.726415363715	678.315164497350	929.131617378012	556.338740820563	597.783885022253	904.625652001815	471.853733895219	599.082156577041	1048.655604134815	782.232246301873	414.722245512449	1028.965939939898	651.617748616689	325.776384985150	1128.182338859918	600.739804730346	400.980079901704	1163.810903128397	534.529645821180	395.348919341914	1146.995451370438	458.182076821929	381.495838877253	1086.455187824290	330.932949379870	317.030459201904	1165.225893712374	228.486948092180	378.348417035382	862.260627848951	389.375741664403	604.730482315856	774.055423737362	299.865257470558	667.191092260403	793.969480445857	200.624081805850	599.858820598779	634.117158640983	48.374830739955	573.019788229012	808.059468444731	96.441759964187	603.715583453630	718.976363623646	38.748625276897	644.965551542541	927.022622406358	38.722558385685	629.527135403364	1076.186494708001	48.676154113550	399.317333331612	1160.524832380241	53.931629950599	330.051401321539	1228.840042468255	130.072370566667	361.199220514101	1365.024416800017	97.670861314550	354.210390369292	771.165982653324	1092.441123298121	250.899322889042	725.843720348315	836.113804757480	274.619616607081	1171.416916367503	1153.653960826437	758.119319367220	1336.378820009904	1272.671650478599	613.774285980575	
21	34.867142857143	763.325453249700	999.592708891603	537.043440342799	933.725924955315	1407.978106329559	323.367022195976	1051.402862627295	1341.583028899571	475.607620247061	992.138299348447	1430.586272047929	650.599468571114	956.494554060992	1476.770394407419	474.903373273914	991.121076367630	926.238170588905	644.849713892096	967.954298884213	940.590144737531	369.085190076848	979.862489860651	712.398609175636	618.365637821434	869.559209773042	622.782812607676	677.397632460465	927.196924408689	554.716399541167	597.252069421148	901.678617924294	470.236811049653	598.615650674682	1048.814397934117	778.025374560512	412.763867566918	1025.908960056965	647.426106102018	324.236933872038	1125.060315545549	595.598594754603	398.633817389396	1159.377767561130	529.736593136328	393.495961480479	1143.315704722646	453.855509251629	379.884295866462	1083.520625652483	325.737091361265	316.922074738629	1163.800615672295	224.527295116817	378.256779689460	858.311037336007	388.182666559383	604.423860860028	768.814211820675	299.981849734426	667.070589472575	787.530181103284	200.323904082453	599.965595085903	626.225843631283	49.180974218252	573.246833492884	800.349043210613	96.548657150242	603.902605439363	711.066561616918	39.056165012933	645.132007780434	919.065529881505	38.516604419394	629.607154330186	1076.227995423565	45.148300205178	400.597691779340	1160.222524737195	50.240903133677	331.008839339681	1228.599974248265	126.115902220909	361.792733535698	1364.619153204782	93.512876872793	354.505361992139	770.967168753947	1091.866049447740	250.249232357469	724.395682558527	835.694225841428	274.313105019542	1174.570248179436	1153.664716908887	755.976660228713	1337.613050867790	1274.874132829534	611.220540701523	
22	34.878500000000	765.007861793174	998.046924657556	535.042127078659	934.686477645841	1406.669111384908	322.078230163114	1052.439209629732	1340.266122320078	474.305754788683	992.769086214982	1428.698577976588	649.499629585717	957.214056738842	1475.341150193091	473.746261139710	992.517475573755	924.460012562377	643.367738302323	969.730632990578	938.718426645076	367.635479689793	979.613224319344	710.539623352423	617.374168178958	868.278629204416	621.869884624813	676.340321150194	925.538467592818	553.083026197148	596.633262854723	898.989445920919	468.581496194939	598.052940072302	1049.343633124320	774.034391699850	410.596654661111	1023.086529736750	643.422238734296	322.847353129156	1122.523152890826	590.830778048361	396.094773058195	1155.314892880847	524.957581385690	391.559118844234	1139.646660311013	449.456467924518	378.287043041177	1079.587246359342	320.854525598576	317.185087534806	1160.902547691038	220.452757267691	378.349930955698	854.558165828403	387.000990005166	604.044399592144	763.729638199954	300.211268618659	666.905986880766	781.194395475343	200.118123794371	600.095725990600	618.365716453255	50.185704153144	573.529437743934	792.716401988943	96.706588024325	604.125561609561	703.190031138777	39.443143929405	645.333068200024	911.136606631922	38.313756194920	629.691995102927	1073.516610136136	42.398491307075	402.396296618376	1156.946910683931	46.784107253657	332.191716377228	1226.098783984643	121.680409854476	362.540681238101	1361.639515041206	87.747088907797	354.422389476808	771.368481835715	1090.947941727814	249.384503713910	723.954974101653	834.862984087152	273.734963812935	1176.944970622526	1153.116451440108	754.165584703302	1338.884169491097	1275.790242138251	609.265053822262	
